<svg width="948" height="431" viewBox="0 0 948 431" fill="none" xmlns="http://www.w3.org/2000/svg">
<path d="M444.707 1.25272C416.1 7.14748 394.602 25.5253 384.373 52.9185C380.905 62.1074 380.559 66.9619 380.038 114.814C379.518 166.306 379.518 166.999 383.506 174.628C385.76 178.962 389.921 183.99 392.868 186.071C395.816 187.978 423.729 198.034 454.937 208.263C497.587 222.306 511.804 227.681 513.191 230.281C514.578 232.535 514.924 255.074 514.578 299.111L514.058 364.474L509.203 374.876C488.571 418.914 429.797 420.648 408.819 377.824L403.097 366.208L402.577 290.616L402.057 214.851L394.082 212.077C378.305 206.702 379.692 199.421 379.692 284.201C379.692 344.362 380.212 361.527 382.292 370.195C389.054 398.455 407.258 418.394 435.172 427.756C444.534 431.05 449.042 431.397 462.565 430.703C476.608 430.01 480.249 429.143 491.172 423.768C507.296 415.793 521.513 401.229 529.315 384.932L534.863 373.143L535.383 301.192C535.729 253.167 535.383 227.161 534.169 222.826C530.528 210.69 525.5 208.263 463.779 187.978C432.224 177.575 405.525 167.866 404.484 166.306C400.843 161.972 401.364 76.4976 405.004 63.8412C412.286 37.6615 439.159 19.4571 465.166 22.7513C484.757 25.3519 500.534 37.4881 509.55 56.5594L514.058 66.2684L514.578 123.829L515.098 181.39L523.073 183.99C527.581 185.551 532.262 186.764 533.476 186.764C535.209 186.764 535.729 175.148 535.729 126.083C535.729 69.2158 535.556 64.5347 532.089 54.6523C524.98 33.5005 511.283 17.7234 491.519 8.01435C476.435 0.559215 459.791 -1.69466 444.707 1.25272Z" fill="#C01E2E"/>
<path d="M447.308 48.7577C439.16 51.185 428.757 61.9342 426.503 70.4296C425.463 74.5906 424.943 91.7548 425.116 114.294L425.636 151.223L436.559 155.037L447.308 158.851V117.414C447.308 78.0581 447.482 75.6309 450.776 72.3368C455.284 67.829 461.525 68.0024 466.033 72.8569C469.674 76.6711 469.847 78.4049 470.194 121.749L470.714 166.48L479.383 169.6C484.237 171.334 489.092 172.721 490.305 172.721C491.866 172.894 492.386 159.198 492.386 109.612V46.3305L472.968 46.6772C462.219 46.8506 450.603 47.7175 447.308 48.7577Z" fill="#C01E2E"/>
<path d="M652.238 187.111L652.758 286.455H662.294H671.829L672.349 187.111L672.696 87.9404H662.294H651.891L652.238 187.111Z" fill="black"/>
<path d="M923.224 104.411C920.45 107.011 918.889 110.652 918.889 113.773C918.889 120.361 925.304 133.018 928.772 133.018C933.453 133.018 941.601 127.643 944.722 122.615C953.564 107.878 935.186 92.2744 923.224 104.411Z" fill="black"/>
<path d="M588.956 120.882C585.315 126.43 582.368 131.631 582.368 132.498C582.541 134.059 590.343 134.579 592.597 133.192C593.464 132.672 595.544 129.551 597.105 126.43C598.665 123.483 600.399 120.882 600.745 120.882C601.266 120.882 603.519 123.829 605.773 127.47C609.067 132.845 610.801 134.059 615.309 133.885C618.256 133.885 620.684 133.538 620.684 133.192C620.684 132.672 617.389 127.47 613.575 121.402C607.334 111.866 605.773 110.479 600.919 110.479C596.238 110.479 594.677 111.866 588.956 120.882Z" fill="black"/>
<path d="M139.567 143.247C132.112 145.154 127.431 147.928 123.443 152.956C118.936 158.677 117.895 158.504 117.895 151.222V145.154H104.892H91.8892L92.2359 244.325L92.756 343.669L108.013 344.189L123.097 344.709V312.635V280.56L130.552 284.721C143.728 292.35 164.533 289.402 174.589 278.48C183.085 269.291 183.778 264.436 183.778 217.625C183.778 192.312 182.911 170.987 181.871 167.173C177.363 150.702 157.078 139.259 139.567 143.247ZM147.543 172.721L152.571 177.749V215.891C152.571 251.26 152.397 254.207 149.103 258.368C141.648 267.73 128.125 264.956 125.004 252.993C122.577 244.671 122.577 187.804 124.83 179.482C128.298 167.346 138.874 164.225 147.543 172.721Z" fill="black"/>
<path d="M225.214 143.42C207.53 146.368 196.261 155.73 191.58 171.507C188.112 183.643 187.765 248.312 191.406 260.102C196.954 278.826 209.264 287.495 231.803 288.709C254.862 289.922 268.732 282.814 276.707 265.65C280.695 257.328 280.868 255.247 280.868 216.931C280.868 171.507 279.828 165.959 269.252 155.21C259.196 144.981 242.552 140.473 225.214 143.42ZM245.326 171.334C248.62 174.454 248.793 177.055 248.793 216.065C248.793 254.38 248.62 257.675 245.499 261.142C240.992 265.997 230.242 266.17 225.735 261.142C223.827 259.235 221.747 255.247 221.227 252.3C219.32 242.591 220.187 182.776 222.44 176.362C226.081 165.959 237.351 163.532 245.326 171.334Z" fill="black"/>
<path d="M591.21 143.247C581.847 145.154 574.565 149.662 569.191 156.77C565.03 162.145 564.163 164.919 563.643 176.708L563.123 190.232H571.791H580.287L581.5 179.656C583.408 163.185 592.597 156.25 606.987 160.584C616.696 163.532 619.296 169.427 618.603 187.111L618.083 201.328L599.705 205.142C565.723 212.25 560.002 218.492 560.002 248.486C560.002 267.904 562.256 274.492 571.271 281.254C582.541 290.096 604.039 289.402 614.615 280.213L620.51 275.012L621.03 280.733C621.377 284.894 622.417 286.455 624.671 286.282C626.231 286.108 630.392 285.935 633.686 285.761L639.755 285.588V227.854C639.581 167.693 638.888 161.625 631.606 153.476C624.671 145.674 604.386 140.473 591.21 143.247ZM618.95 234.442C618.95 259.062 613.922 267.904 599.185 269.464C584.448 271.198 577.86 261.662 579.593 241.724C580.807 228.201 584.795 224.04 599.878 220.746C620.163 216.411 618.95 215.544 618.95 234.442Z" fill="black"/>
<path d="M716.213 143.594C703.903 145.154 694.194 152.089 688.473 163.359C683.965 171.854 683.965 172.201 683.965 215.371C683.965 258.542 683.965 258.888 688.473 267.384C702.863 295.644 746.901 295.991 761.291 268.077C763.545 263.569 764.585 257.848 764.585 250.046V238.603L755.569 239.124L746.38 239.644L745.514 250.566C744.82 260.275 743.953 262.182 738.925 266.69C732.164 272.758 723.148 273.452 714.653 268.251C706.331 263.223 703.903 255.768 703.903 235.309V217.972H735.111H766.319V202.715C766.319 180.696 763.545 166.306 757.997 158.157C749.328 145.674 735.978 140.993 716.213 143.594ZM733.377 161.278C735.631 162.492 739.445 166.133 741.526 169.253C744.82 174.108 745.514 177.402 745.514 188.671V202.368H724.709H703.903V188.671C703.903 177.402 704.597 174.108 707.891 169.253C714.306 159.718 724.015 156.597 733.377 161.278Z" fill="black"/>
<path d="M813.997 143.42C806.542 144.981 802.034 147.755 796.833 153.996L792.325 159.371V152.262V145.154H783.656H774.987V215.024C774.987 253.514 775.334 285.415 775.681 285.761C776.028 286.108 780.709 286.108 786.083 285.935L795.619 285.241L796.139 231.322C796.659 181.563 797.006 176.708 799.953 171.68C805.155 163.358 816.944 159.718 825.266 164.225C831.334 167.519 832.201 175.148 832.201 232.362C832.201 282.12 832.548 287.668 834.975 286.628C836.536 286.108 841.217 285.588 845.378 285.588H853.006V232.882C853.006 202.194 853.7 178.095 854.74 175.495C858.901 164.572 871.557 159.197 881.093 164.399C888.721 168.386 889.415 174.628 889.415 231.668V285.241L898.951 285.935L908.486 286.455V224.907C908.486 168.213 908.313 162.838 905.192 157.29C898.777 145.327 886.468 140.473 870.69 143.594C863.582 144.981 859.768 147.061 854.74 152.089L848.152 158.677L845.898 154.516C841.217 145.674 826.48 140.646 813.997 143.42Z" fill="black"/>
<path d="M19.7648 147.755C7.45514 153.996 2.774 161.625 2.0805 177.402C0.866876 200.461 6.24151 208.61 34.1549 225.254C53.573 236.87 57.2138 241.031 57.2138 251.78C57.2138 256.114 55.8268 259.409 52.7061 262.529C48.8918 266.344 47.1581 266.864 41.0899 265.997C31.5543 264.61 27.74 259.929 27.74 249.006V240.511H13.87H0V249.526C0 263.396 3.12076 271.892 10.4025 278.827C18.8979 286.975 29.127 289.749 47.1581 288.709C70.7371 287.495 82.8734 278.653 86.6876 260.449C90.8487 240.857 84.2604 223.693 68.83 213.811C63.8021 210.69 54.6132 205.142 48.1983 201.675C34.3283 194.219 31.2076 190.232 31.2076 180.349C31.2076 170.814 35.7153 165.959 44.2107 165.959C53.3996 165.959 58.9476 172.201 58.9476 182.43V190.232H72.8176H86.6876V183.644C86.5143 173.241 83.3935 162.145 78.539 155.904C71.604 146.715 62.5885 143.421 44.0373 143.421C30.8608 143.421 27.0465 144.114 19.7648 147.755Z" fill="black"/>
<path d="M327.68 147.235C324.385 149.488 320.051 154.69 317.797 158.851L313.81 166.479V155.73V144.981L301.326 145.501C294.391 145.848 288.843 146.541 289.19 147.235C289.364 148.101 289.537 179.829 289.537 217.972V287.322H304.1H318.837L319.358 239.123C319.878 194.566 320.051 190.578 323.519 184.163C328.026 175.321 336.522 170.64 345.537 172.201L351.952 173.241V158.331V143.42H342.59C335.828 143.42 331.841 144.461 327.68 147.235Z" fill="black"/>
<path d="M922.703 215.718L923.223 286.455L932.759 286.282H942.295L942.815 215.718L943.161 145.154H932.759H922.356L922.703 215.718Z" fill="black"/>
<path d="M424.77 287.842C424.77 328.759 425.463 356.499 426.677 360.66C428.757 368.635 437.599 379.037 444.881 381.985C448.175 383.372 458.058 384.239 471.234 384.239L492.386 384.412V315.235C492.386 262.009 491.866 245.712 490.305 244.325C489.092 243.458 483.891 241.378 479.036 239.991L469.847 237.216V295.817C469.847 349.91 469.674 354.938 466.726 358.406C462.912 363.087 455.457 363.434 450.776 359.273C447.482 356.325 447.308 353.551 447.308 292.523V229.068L436.039 225.427L424.77 221.786V287.842Z" fill="#C01E2E"/>
</svg>
