<svg width="512" height="520" viewBox="0 0 512 520" fill="none" xmlns="http://www.w3.org/2000/svg">
<g filter="url(#filter0_d_20_29)">
<path d="M240.271 1.48805C206.288 8.49065 180.749 30.3223 168.598 62.8637C164.479 73.7795 164.067 79.5464 163.449 136.391C162.831 197.561 162.831 198.384 167.568 207.447C170.245 212.596 175.188 218.568 178.69 221.04C182.191 223.305 215.35 235.251 252.423 247.403C303.089 264.085 319.977 270.47 321.625 273.559C323.273 276.237 323.685 303.011 323.273 355.325L322.655 432.971L316.888 445.329C292.379 497.642 222.559 499.702 197.638 448.83L190.841 435.031L190.223 345.233L189.606 255.229L180.131 251.934C161.389 245.549 163.037 236.899 163.037 337.612C163.037 409.08 163.655 429.47 166.126 439.768C174.159 473.339 195.784 497.024 228.944 508.146C240.065 512.059 245.42 512.471 261.485 511.648C278.168 510.824 282.493 509.794 295.468 503.409C314.622 493.935 331.511 476.635 340.779 457.274L347.37 443.269L347.988 357.796C348.4 300.746 347.988 269.852 346.546 264.703C342.221 250.286 336.248 247.403 262.927 223.305C225.442 210.948 193.725 199.414 192.489 197.561C188.164 192.412 188.782 90.8741 193.107 75.8391C201.757 44.7394 233.681 23.1137 264.574 27.0269C287.848 30.1163 306.59 44.5334 317.3 67.1888L322.655 78.7225L323.273 147.101L323.891 215.479L333.365 218.568C338.72 220.422 344.28 221.864 345.722 221.864C347.782 221.864 348.4 208.065 348.4 149.778C348.4 82.2238 348.194 76.6629 344.074 64.9233C335.63 39.7964 319.359 21.0541 295.88 9.52044C277.962 0.664219 258.19 -2.01324 240.271 1.48805Z" fill="#C01E2E"/>
<path d="M243.361 57.9203C233.681 60.8037 221.324 73.5732 218.646 83.6651C217.41 88.6081 216.793 108.998 216.999 135.773L217.616 179.642L230.592 184.173L243.361 188.704V139.48C243.361 92.7273 243.567 89.8439 247.48 85.9307C252.835 80.5757 260.25 80.7817 265.605 86.5485C269.93 91.0796 270.136 93.1392 270.548 144.629L271.166 197.766L281.464 201.473C287.23 203.533 292.997 205.181 294.439 205.181C296.293 205.387 296.91 189.116 296.91 130.212V55.0369L273.843 55.4488C261.074 55.6548 247.274 56.6846 243.361 57.9203Z" fill="#C01E2E"/>
<path d="M216.586 341.938C216.586 390.544 217.41 423.497 218.851 428.44C221.323 437.915 231.827 450.272 240.477 453.773C244.39 455.421 256.13 456.451 271.783 456.451L296.91 456.657V374.479C296.91 311.25 296.292 291.89 294.438 290.242C292.997 289.212 286.818 286.741 281.051 285.093L270.135 281.798V351.412C270.135 415.671 269.929 421.644 266.428 425.763C261.897 431.324 253.041 431.736 247.48 426.793C243.567 423.291 243.361 419.996 243.361 347.499V272.118L229.973 267.793L216.586 263.468V341.938Z" fill="#C01E2E"/>
</g>
<defs>
<filter id="filter0_d_20_29" x="-4" y="0" width="520" height="520" filterUnits="userSpaceOnUse" color-interpolation-filters="sRGB">
<feFlood flood-opacity="0" result="BackgroundImageFix"/>
<feColorMatrix in="SourceAlpha" type="matrix" values="0 0 0 0 0 0 0 0 0 0 0 0 0 0 0 0 0 0 127 0" result="hardAlpha"/>
<feOffset dy="4"/>
<feGaussianBlur stdDeviation="2"/>
<feComposite in2="hardAlpha" operator="out"/>
<feColorMatrix type="matrix" values="0 0 0 0 0 0 0 0 0 0 0 0 0 0 0 0 0 0 0.25 0"/>
<feBlend mode="normal" in2="BackgroundImageFix" result="effect1_dropShadow_20_29"/>
<feBlend mode="normal" in="SourceGraphic" in2="effect1_dropShadow_20_29" result="shape"/>
</filter>
</defs>
</svg>
