<svg width="1200" height="628" viewBox="0 0 1200 628" fill="none" xmlns="http://www.w3.org/2000/svg">
<rect width="1200" height="628" fill="white"/>
<path d="M570.707 100.253C542.1 106.147 520.602 124.525 510.373 151.919C506.905 161.107 506.559 165.962 506.038 213.814C505.518 265.306 505.518 265.999 509.506 273.628C511.76 277.962 515.921 282.99 518.868 285.071C521.816 286.978 549.729 297.034 580.937 307.263C623.587 321.306 637.804 326.681 639.191 329.281C640.578 331.535 640.924 354.074 640.578 398.111L640.058 463.474L635.203 473.876C614.571 517.914 555.797 519.648 534.819 476.824L529.097 465.208L528.577 389.616L528.057 313.851L520.082 311.077C504.305 305.702 505.692 298.421 505.692 383.201C505.692 443.362 506.212 460.527 508.292 469.195C515.054 497.455 533.258 517.394 561.172 526.756C570.534 530.05 575.042 530.397 588.565 529.703C602.608 529.01 606.249 528.143 617.172 522.768C633.296 514.793 647.513 500.229 655.315 483.932L660.863 472.143L661.383 400.192C661.729 352.167 661.383 326.161 660.169 321.826C656.528 309.69 651.5 307.263 589.779 286.978C558.224 276.575 531.525 266.866 530.484 265.306C526.843 260.972 527.364 175.498 531.004 162.841C538.286 136.662 565.159 118.457 591.166 121.751C610.757 124.352 626.534 136.488 635.55 155.559L640.058 165.268L640.578 222.829L641.098 280.39L649.073 282.99C653.581 284.551 658.262 285.764 659.476 285.764C661.209 285.764 661.729 274.148 661.729 225.083C661.729 168.216 661.556 163.535 658.089 153.652C650.98 132.501 637.283 116.723 617.519 107.014C602.435 99.5592 585.791 97.3053 570.707 100.253Z" fill="#C01E2E"/>
<path d="M573.308 147.758C565.16 150.185 554.757 160.934 552.503 169.43C551.463 173.591 550.943 190.755 551.116 213.294L551.636 250.223L562.559 254.037L573.308 257.851V216.414C573.308 177.058 573.482 174.631 576.776 171.337C581.284 166.829 587.525 167.002 592.033 171.857C595.674 175.671 595.847 177.405 596.194 220.749L596.714 265.48L605.383 268.6C610.237 270.334 615.092 271.721 616.305 271.721C617.866 271.894 618.386 258.198 618.386 208.612V145.33L598.968 145.677C588.219 145.851 576.603 146.717 573.308 147.758Z" fill="#C01E2E"/>
<path d="M778.238 286.111L778.758 385.455H788.294H797.829L798.349 286.111L798.696 186.94H788.294H777.891L778.238 286.111Z" fill="black"/>
<path d="M1049.22 203.411C1046.45 206.011 1044.89 209.652 1044.89 212.773C1044.89 219.361 1051.3 232.018 1054.77 232.018C1059.45 232.018 1067.6 226.643 1070.72 221.615C1079.56 206.878 1061.19 191.274 1049.22 203.411Z" fill="black"/>
<path d="M714.956 219.882C711.315 225.43 708.368 230.631 708.368 231.498C708.541 233.059 716.343 233.579 718.597 232.192C719.464 231.672 721.544 228.551 723.105 225.43C724.665 222.483 726.399 219.882 726.745 219.882C727.266 219.882 729.519 222.829 731.773 226.47C735.067 231.845 736.801 233.059 741.309 232.885C744.256 232.885 746.684 232.538 746.684 232.192C746.684 231.672 743.389 226.47 739.575 220.402C733.334 210.866 731.773 209.479 726.919 209.479C722.238 209.479 720.677 210.866 714.956 219.882Z" fill="black"/>
<path d="M265.567 242.247C258.112 244.154 253.431 246.928 249.443 251.956C244.936 257.677 243.895 257.504 243.895 250.222V244.154H230.892H217.889L218.236 343.325L218.756 442.669L234.013 443.189L249.097 443.709V411.635V379.56L256.552 383.721C269.728 391.35 290.533 388.402 300.589 377.48C309.085 368.291 309.778 363.436 309.778 316.625C309.778 291.312 308.911 269.987 307.871 266.173C303.363 249.702 283.078 238.259 265.567 242.247ZM273.543 271.721L278.571 276.749V314.891C278.571 350.26 278.397 353.207 275.103 357.368C267.648 366.73 254.125 363.956 251.004 351.993C248.577 343.671 248.577 286.804 250.83 278.482C254.298 266.346 264.874 263.225 273.543 271.721Z" fill="black"/>
<path d="M351.214 242.42C333.53 245.368 322.261 254.73 317.58 270.507C314.112 282.643 313.765 347.312 317.406 359.102C322.954 377.826 335.264 386.495 357.803 387.709C380.862 388.922 394.732 381.814 402.707 364.65C406.695 356.328 406.868 354.247 406.868 315.931C406.868 270.507 405.828 264.959 395.252 254.21C385.196 243.981 368.552 239.473 351.214 242.42ZM371.326 270.334C374.62 273.454 374.793 276.055 374.793 315.065C374.793 353.38 374.62 356.675 371.499 360.142C366.992 364.997 356.242 365.17 351.735 360.142C349.827 358.235 347.747 354.247 347.227 351.3C345.32 341.591 346.187 281.776 348.44 275.362C352.081 264.959 363.351 262.532 371.326 270.334Z" fill="black"/>
<path d="M717.21 242.247C707.847 244.154 700.565 248.662 695.191 255.77C691.03 261.145 690.163 263.919 689.643 275.708L689.123 289.232H697.791H706.287L707.5 278.656C709.408 262.185 718.597 255.25 732.987 259.584C742.696 262.532 745.296 268.427 744.603 286.111L744.083 300.328L725.705 304.142C691.723 311.25 686.002 317.492 686.002 347.486C686.002 366.904 688.256 373.492 697.271 380.254C708.541 389.096 730.039 388.402 740.615 379.213L746.51 374.012L747.03 379.733C747.377 383.894 748.417 385.455 750.671 385.282C752.231 385.108 756.392 384.935 759.686 384.761L765.755 384.588V326.854C765.581 266.693 764.888 260.625 757.606 252.476C750.671 244.674 730.386 239.473 717.21 242.247ZM744.95 333.442C744.95 358.062 739.922 366.904 725.185 368.464C710.448 370.198 703.86 360.662 705.593 340.724C706.807 327.201 710.795 323.04 725.878 319.746C746.163 315.411 744.95 314.544 744.95 333.442Z" fill="black"/>
<path d="M842.213 242.594C829.903 244.154 820.194 251.089 814.473 262.359C809.965 270.854 809.965 271.201 809.965 314.371C809.965 357.542 809.965 357.888 814.473 366.384C828.863 394.644 872.901 394.991 887.291 367.077C889.545 362.569 890.585 356.848 890.585 349.046V337.603L881.569 338.124L872.38 338.644L871.514 349.566C870.82 359.275 869.953 361.182 864.925 365.69C858.164 371.758 849.148 372.452 840.653 367.251C832.331 362.223 829.903 354.768 829.903 334.309V316.972H861.111H892.319V301.715C892.319 279.696 889.545 265.306 883.997 257.157C875.328 244.674 861.978 239.993 842.213 242.594ZM859.377 260.278C861.631 261.492 865.445 265.133 867.526 268.253C870.82 273.108 871.514 276.402 871.514 287.671V301.368H850.709H829.903V287.671C829.903 276.402 830.597 273.108 833.891 268.253C840.306 258.718 850.015 255.597 859.377 260.278Z" fill="black"/>
<path d="M939.997 242.42C932.542 243.981 928.034 246.755 922.833 252.996L918.325 258.371V251.262V244.154H909.656H900.987V314.024C900.987 352.514 901.334 384.415 901.681 384.761C902.028 385.108 906.709 385.108 912.083 384.935L921.619 384.241L922.139 330.322C922.659 280.563 923.006 275.708 925.953 270.68C931.155 262.358 942.944 258.718 951.266 263.225C957.334 266.519 958.201 274.148 958.201 331.362C958.201 381.12 958.548 386.668 960.975 385.628C962.536 385.108 967.217 384.588 971.378 384.588H979.006V331.882C979.006 301.194 979.7 277.095 980.74 274.495C984.901 263.572 997.557 258.197 1007.09 263.399C1014.72 267.386 1015.41 273.628 1015.41 330.668V384.241L1024.95 384.935L1034.49 385.455V323.907C1034.49 267.213 1034.31 261.838 1031.19 256.29C1024.78 244.327 1012.47 239.473 996.69 242.594C989.582 243.981 985.768 246.061 980.74 251.089L974.152 257.677L971.898 253.516C967.217 244.674 952.48 239.646 939.997 242.42Z" fill="black"/>
<path d="M145.765 246.755C133.455 252.996 128.774 260.625 128.081 276.402C126.867 299.461 132.242 307.61 160.155 324.254C179.573 335.87 183.214 340.031 183.214 350.78C183.214 355.114 181.827 358.409 178.706 361.529C174.892 365.344 173.158 365.864 167.09 364.997C157.554 363.61 153.74 358.929 153.74 348.006V339.511H139.87H126V348.526C126 362.396 129.121 370.892 136.403 377.827C144.898 385.975 155.127 388.749 173.158 387.709C196.737 386.495 208.873 377.653 212.688 359.449C216.849 339.857 210.26 322.693 194.83 312.811C189.802 309.69 180.613 304.142 174.198 300.675C160.328 293.219 157.208 289.232 157.208 279.349C157.208 269.814 161.715 264.959 170.211 264.959C179.4 264.959 184.948 271.201 184.948 281.43V289.232H198.818H212.688V282.644C212.514 272.241 209.394 261.145 204.539 254.904C197.604 245.715 188.588 242.421 170.037 242.421C156.861 242.421 153.047 243.114 145.765 246.755Z" fill="black"/>
<path d="M453.68 246.235C450.385 248.488 446.051 253.69 443.797 257.851L439.81 265.479V254.73V243.981L427.326 244.501C420.391 244.848 414.843 245.541 415.19 246.235C415.364 247.101 415.537 278.829 415.537 316.972V386.322H430.1H444.837L445.358 338.123C445.878 293.566 446.051 289.578 449.519 283.163C454.026 274.321 462.522 269.64 471.537 271.201L477.952 272.241V257.331V242.42H468.59C461.828 242.42 457.841 243.461 453.68 246.235Z" fill="black"/>
<path d="M1048.7 314.718L1049.22 385.455L1058.76 385.282H1068.29L1068.81 314.718L1069.16 244.154H1058.76H1048.36L1048.7 314.718Z" fill="black"/>
<path d="M550.77 386.842C550.77 427.759 551.463 455.499 552.677 459.66C554.757 467.635 563.599 478.037 570.881 480.985C574.175 482.372 584.058 483.239 597.234 483.239L618.386 483.412V414.235C618.386 361.009 617.866 344.712 616.305 343.325C615.092 342.458 609.891 340.378 605.036 338.991L595.847 336.216V394.817C595.847 448.91 595.674 453.938 592.726 457.406C588.912 462.087 581.457 462.434 576.776 458.273C573.482 455.325 573.308 452.551 573.308 391.523V328.068L562.039 324.427L550.77 320.786V386.842Z" fill="#C01E2E"/>
</svg>
